<?xml version="1.0" encoding="UTF-8"?>
<svg width="100px" height="100px" viewBox="0 0 100 100" version="1.1" xmlns="http://www.w3.org/2000/svg" xmlns:xlink="http://www.w3.org/1999/xlink">
    <!-- Generator: Sketch 53.2 (72643) - https://sketchapp.com -->
    <title>ic_big_red_x</title>
    <desc>Created with Sketch.</desc>
    <g id="ic_big_red_x" stroke="none" stroke-width="1" fill="none" fill-rule="evenodd">
        <path d="M60.1357864,37.0357864 C60.916835,36.2547379 62.183165,36.2547379 62.9642136,37.0357864 C63.7452621,37.816835 63.7452621,39.083165 62.9642136,39.8642136 L39.8642136,62.9642136 C39.083165,63.7452621 37.816835,63.7452621 37.0357864,62.9642136 C36.2547379,62.183165 36.2547379,60.916835 37.0357864,60.1357864 L60.1357864,37.0357864 Z" id="Path" fill="#F46155" fill-rule="nonzero"></path>
        <path d="M37.0357864,39.8642136 C36.2547379,39.083165 36.2547379,37.816835 37.0357864,37.0357864 C37.816835,36.2547379 39.083165,36.2547379 39.8642136,37.0357864 L62.9642136,60.1357864 C63.7452621,60.916835 63.7452621,62.183165 62.9642136,62.9642136 C62.183165,63.7452621 60.916835,63.7452621 60.1357864,62.9642136 L37.0357864,39.8642136 Z" id="Path" fill="#F46155" fill-rule="nonzero"></path>
        <path d="M50,90.3333333 C27.7245151,90.3333333 9.66666667,72.2754849 9.66666667,50 C9.66666667,27.7245151 27.7245151,9.66666667 50,9.66666667 C72.2754849,9.66666667 90.3333333,27.7245151 90.3333333,50 C90.3333333,72.2754849 72.2754849,90.3333333 50,90.3333333 Z M50,86.3333333 C70.0663459,86.3333333 86.3333333,70.0663459 86.3333333,50 C86.3333333,29.9336541 70.0663459,13.6666667 50,13.6666667 C29.9336541,13.6666667 13.6666667,29.9336541 13.6666667,50 C13.6666667,70.0663459 29.9336541,86.3333333 50,86.3333333 Z" id="Oval" fill="#F46155" fill-rule="nonzero"></path>
    </g>
</svg>