<?xml version="1.0" encoding="UTF-8"?>
<svg width="100px" height="100px" viewBox="0 0 100 100" version="1.1" xmlns="http://www.w3.org/2000/svg" xmlns:xlink="http://www.w3.org/1999/xlink">
    <!-- Generator: Sketch 53.2 (72643) - https://sketchapp.com -->
    <title>ic_big_red_alert</title>
    <desc>Created with Sketch.</desc>
    <g id="ic_big_red_alert" stroke="none" stroke-width="1" fill="none" fill-rule="evenodd">
        <g id="alert-circle-copy" transform="translate(9.666667, 9.666667)" fill="#F46155" fill-rule="nonzero">
            <path d="M40.3333333,80.6666667 C18.0578484,80.6666667 0,62.6088182 0,40.3333333 C0,18.0578484 18.0578484,0 40.3333333,0 C62.6088182,0 80.6666667,18.0578484 80.6666667,40.3333333 C80.6666667,62.6088182 62.6088182,80.6666667 40.3333333,80.6666667 Z M40.3333333,76.6666667 C60.3996792,76.6666667 76.6666667,60.3996792 76.6666667,40.3333333 C76.6666667,20.2669874 60.3996792,4 40.3333333,4 C20.2669874,4 4,20.2669874 4,40.3333333 C4,60.3996792 20.2669874,76.6666667 40.3333333,76.6666667 Z" id="Oval"></path>
            <path d="M38.3333333,25 C38.3333333,23.8954305 39.2287638,23 40.3333333,23 C41.4379028,23 42.3333333,23.8954305 42.3333333,25 L42.3333333,40.3333333 C42.3333333,41.4379028 41.4379028,42.3333333 40.3333333,42.3333333 C39.2287638,42.3333333 38.3333333,41.4379028 38.3333333,40.3333333 L38.3333333,25 Z" id="Path"></path>
            <path d="M40.3333333,57.6666667 C39.2287638,57.6666667 38.3333333,56.7712362 38.3333333,55.6666667 C38.3333333,54.5620972 39.2287638,53.6666667 40.3333333,53.6666667 L40.3716667,53.6666667 C41.4762362,53.6666667 42.3716667,54.5620972 42.3716667,55.6666667 C42.3716667,56.7712362 41.4762362,57.6666667 40.3716667,57.6666667 L40.3333333,57.6666667 Z" id="Path"></path>
        </g>
    </g>
</svg>