<?xml version="1.0" encoding="UTF-8"?>
<svg width="100px" height="100px" viewBox="0 0 100 100" version="1.1" xmlns="http://www.w3.org/2000/svg" xmlns:xlink="http://www.w3.org/1999/xlink">
    <!-- Generator: Sketch 53.2 (72643) - https://sketchapp.com -->
    <title>ic_big_green_success</title>
    <desc>Created with Sketch.</desc>
    <g id="ic_big_green_success" stroke="none" stroke-width="1" fill="none" fill-rule="evenodd">
        <g id="check-circle-copy" transform="translate(9.666667, 9.666667)" fill="#45B29D" fill-rule="nonzero">
            <path d="M40.3333333,80.6666667 C18.0578484,80.6666667 0,62.6088182 0,40.3333333 C0,18.0578484 18.0578484,0 40.3333333,0 C62.6088182,0 80.6666667,18.0578484 80.6666667,40.3333333 C80.6666667,62.6088182 62.6088182,80.6666667 40.3333333,80.6666667 Z M40.3333333,76.6666667 C60.3996792,76.6666667 76.6666667,60.3996792 76.6666667,40.3333333 C76.6666667,20.2669874 60.3996792,4 40.3333333,4 C20.2669874,4 4,20.2669874 4,40.3333333 C4,60.3996792 20.2669874,76.6666667 40.3333333,76.6666667 Z" id="Oval"></path>
            <path d="M55.0972487,26.5651064 C55.8100975,25.7213527 57.0719732,25.6152332 57.9157269,26.328082 C58.7594807,27.0409308 58.8656001,28.3028065 58.1527513,29.1465602 L37.069418,54.1015602 C36.313902,54.9958164 34.9552509,55.0528447 34.1274531,54.2250469 L22.6274531,42.7250469 C21.8464045,41.9439983 21.8464045,40.6776684 22.6274531,39.8966198 C23.4085017,39.1155712 24.6748316,39.1155712 25.4558802,39.8966198 L35.4177441,49.8584837 L55.0972487,26.5651064 Z" id="Path"></path>
        </g>
    </g>
</svg>