<?xml version="1.0" encoding="UTF-8"?>
<svg width="30px" height="30px" viewBox="0 0 30 30" version="1.1" xmlns="http://www.w3.org/2000/svg" xmlns:xlink="http://www.w3.org/1999/xlink">
    <!-- Generator: Sketch 53.2 (72643) - https://sketchapp.com -->
    <title>ic_gray_mail</title>
    <desc>Created with Sketch.</desc>
    <g id="ic_gray_mail" stroke="none" stroke-width="1" fill="none" fill-rule="evenodd">
        <path d="M5.09148313,7.94338263 L15,14.8793444 L24.9085169,7.94338263 C24.7271798,7.50899248 24.2964759,7.2 23.8,7.2 L6.2,7.2 C5.7035241,7.2 5.27282021,7.50899248 5.09148313,7.94338263 Z M5,10.3206556 L5,21.6 C5,22.2577153 5.54228475,22.8 6.2,22.8 L23.8,22.8 C24.4577153,22.8 25,22.2577153 25,21.6 L25,10.3206556 L15.5734623,16.9192319 C15.2291422,17.160256 14.7708578,17.160256 14.4265377,16.9192319 L5,10.3206556 Z M26.999955,8.38293224 C27.000113,8.39270883 27.0001278,8.40248242 27,8.41224973 L27,21.6 C27,23.3622847 25.5622847,24.8 23.8,24.8 L6.2,24.8 C4.43771525,24.8 3,23.3622847 3,21.6 L3,8.41224973 C2.99987219,8.40248242 2.99988698,8.39270883 3.00004497,8.38293224 C3.0092918,6.62844184 4.4434079,5.2 6.2,5.2 L23.8,5.2 C25.5565921,5.2 26.9907082,6.62844184 26.999955,8.38293224 Z" id="Combined-Shape" fill="#979797" fill-rule="nonzero"></path>
    </g>
</svg>