<?xml version="1.0" encoding="UTF-8"?>
<svg width="30px" height="30px" viewBox="0 0 30 30" version="1.1" xmlns="http://www.w3.org/2000/svg" xmlns:xlink="http://www.w3.org/1999/xlink">
    <!-- Generator: Sketch 53.2 (72643) - https://sketchapp.com -->
    <title>ic_gray_user</title>
    <desc>Created with Sketch.</desc>
    <g id="ic_gray_user" stroke="none" stroke-width="1" fill="none" fill-rule="evenodd">
        <path d="M26.7,26.7 C26.7,27.4179702 26.1179702,28 25.4,28 C24.6820298,28 24.1,27.4179702 24.1,26.7 L24.1,24.1 C24.1,21.9460895 22.3539105,20.2 20.2,20.2 L9.8,20.2 C7.64608948,20.2 5.9,21.9460895 5.9,24.1 L5.9,26.7 C5.9,27.4179702 5.31797017,28 4.6,28 C3.88202983,28 3.3,27.4179702 3.3,26.7 L3.3,24.1 C3.3,20.5101491 6.21014913,17.6 9.8,17.6 L20.2,17.6 C23.7898509,17.6 26.7,20.5101491 26.7,24.1 L26.7,26.7 Z" id="Path" fill="#979797" fill-rule="nonzero"></path>
        <path d="M15,15 C11.4101491,15 8.5,12.0898509 8.5,8.5 C8.5,4.91014913 11.4101491,2 15,2 C18.5898509,2 21.5,4.91014913 21.5,8.5 C21.5,12.0898509 18.5898509,15 15,15 Z M15,12.4 C17.1539105,12.4 18.9,10.6539105 18.9,8.5 C18.9,6.34608948 17.1539105,4.6 15,4.6 C12.8460895,4.6 11.1,6.34608948 11.1,8.5 C11.1,10.6539105 12.8460895,12.4 15,12.4 Z" id="Oval" fill="#979797" fill-rule="nonzero"></path>
    </g>
</svg>