<?xml version="1.0" encoding="UTF-8"?>
<svg width="30px" height="30px" viewBox="0 0 30 30" version="1.1" xmlns="http://www.w3.org/2000/svg" xmlns:xlink="http://www.w3.org/1999/xlink">
    <!-- Generator: Sketch 53.2 (72643) - https://sketchapp.com -->
    <title>ic_white_search</title>
    <desc>Created with Sketch.</desc>
    <g id="ic_white_search" stroke="none" stroke-width="1" fill="none" fill-rule="evenodd">
        <path d="M21.7021104,20.130762 L25.7856742,24.2143258 C26.2195901,24.6482417 26.2195901,25.3517583 25.7856742,25.7856742 C25.3517583,26.2195901 24.6482417,26.2195901 24.2143258,25.7856742 L20.130762,21.7021104 C18.4200166,23.0705857 16.2500152,23.8888889 13.8888889,23.8888889 C8.36604139,23.8888889 3.88888889,19.4117364 3.88888889,13.8888889 C3.88888889,8.36604139 8.36604139,3.88888889 13.8888889,3.88888889 C19.4117364,3.88888889 23.8888889,8.36604139 23.8888889,13.8888889 C23.8888889,16.2500152 23.0705857,18.4200166 21.7021104,20.130762 Z M19.4904288,19.284879 C20.8379738,17.8863276 21.6666667,15.9843841 21.6666667,13.8888889 C21.6666667,9.59334083 18.1844369,6.11111111 13.8888889,6.11111111 C9.59334083,6.11111111 6.11111111,9.59334083 6.11111111,13.8888889 C6.11111111,18.1844369 9.59334083,21.6666667 13.8888889,21.6666667 C15.9843841,21.6666667 17.8863276,20.8379738 19.284879,19.4904288 C19.3141204,19.4523985 19.3461582,19.4158267 19.3809925,19.3809925 C19.4158267,19.3461582 19.4523985,19.3141204 19.4904288,19.284879 Z" id="Mask" fill="#FFFFFF" fill-rule="nonzero"></path>
    </g>
</svg>