<?xml version="1.0" encoding="UTF-8"?>
<svg width="30px" height="30px" viewBox="0 0 30 30" version="1.1" xmlns="http://www.w3.org/2000/svg" xmlns:xlink="http://www.w3.org/1999/xlink">
    <!-- Generator: Sketch 53.2 (72643) - https://sketchapp.com -->
    <title>ic_pen</title>
    <desc>Created with Sketch.</desc>
    <g id="ic_pen" stroke="none" stroke-width="1" fill="none" fill-rule="evenodd">
        <path d="M23.2928932,9.29289321 C23.7547995,8.83098695 23.9351944,8.15774391 23.766125,7.52676822 C23.5970556,6.89579253 23.1042075,6.40294441 22.4732318,6.23387499 C21.8422561,6.06480556 21.169013,6.2452005 20.7071068,6.70710677 L7.3948892,20.0193244 L6.42521928,23.5747807 L9.98067563,22.6051108 L23.2928932,9.29289321 Z M22.9908699,4.30202333 C24.3120297,4.65602703 25.343973,5.68797032 25.6979767,7.00913014 C26.0519804,8.33028995 25.6742629,9.7399507 24.7071068,10.7071068 L11.2071068,24.2071068 C11.0840512,24.3301624 10.9310123,24.4189743 10.7631174,24.4647638 L5.26311741,25.9647638 C4.51661849,26.1683544 3.83164557,25.4833815 4.03523618,24.7368826 L5.53523618,19.2368826 C5.5810257,19.0689877 5.66983759,18.9159488 5.79289322,18.7928932 L19.2928932,5.29289322 C20.2600493,4.3257371 21.66971,3.94801963 22.9908699,4.30202333 Z" id="Mask" fill="#FFFFFF" fill-rule="nonzero"></path>
    </g>
</svg>