<?xml version="1.0" encoding="UTF-8"?>
<svg width="30px" height="30px" viewBox="0 0 30 30" version="1.1" xmlns="http://www.w3.org/2000/svg" xmlns:xlink="http://www.w3.org/1999/xlink">
    <!-- Generator: Sketch 53.2 (72643) - https://sketchapp.com -->
    <title>ic_user</title>
    <desc>Created with Sketch.</desc>
    <g id="ic_user" stroke="none" stroke-width="1" fill="none" fill-rule="evenodd">
        <path d="M22,25.9563642 L22,24 C22,22.3431458 20.6568542,21 19,21 L11,21 C9.34314575,21 8,22.3431458 8,24 L8,25.9563642 C10.020601,27.250007 12.4227154,28 15,28 C17.5772846,28 19.979399,27.250007 22,25.9563642 Z M6,24.3808556 L6,24 C6,21.2385763 8.23857625,19 11,19 L19,19 C21.7614237,19 24,21.2385763 24,24 L24,24.3808556 C26.4653401,22.0149959 28,18.6867175 28,15 C28,7.82029825 22.1797017,2 15,2 C7.82029825,2 2,7.82029825 2,15 C2,18.6867175 3.5346599,22.0149959 6,24.3808556 Z M15,30 C6.71572875,30 6.82121026e-13,23.2842712 6.82121026e-13,15 C6.82121026e-13,6.71572875 6.71572875,0 15,0 C23.2842712,0 30,6.71572875 30,15 C30,23.2842712 23.2842712,30 15,30 Z M15,17 C12.2385763,17 10,14.7614237 10,12 C10,9.23857625 12.2385763,7 15,7 C17.7614237,7 20,9.23857625 20,12 C20,14.7614237 17.7614237,17 15,17 Z M15,15 C16.6568542,15 18,13.6568542 18,12 C18,10.3431458 16.6568542,9 15,9 C13.3431458,9 12,10.3431458 12,12 C12,13.6568542 13.3431458,15 15,15 Z" id="Mask" fill="#FFFFFF" fill-rule="nonzero"></path>
    </g>
</svg>