<?xml version="1.0" encoding="UTF-8"?>
<svg width="30px" height="30px" viewBox="0 0 30 30" version="1.1" xmlns="http://www.w3.org/2000/svg" xmlns:xlink="http://www.w3.org/1999/xlink">
    <!-- Generator: Sketch 53.2 (72643) - https://sketchapp.com -->
    <title>ic_phone</title>
    <desc>Created with Sketch.</desc>
    <g id="ic_phone" stroke="none" stroke-width="1" fill="none" fill-rule="evenodd">
        <path d="M24,19.92 L24.0003077,19.895195 C24.0129027,19.3875913 23.643089,18.9511251 23.1492425,18.8814144 C22.1144045,18.7449298 21.0983282,18.4918147 20.1181391,18.1260523 C19.7527016,17.9886848 19.340736,18.0765448 19.0671068,18.3471068 L17.7971068,19.6171068 C17.4787938,19.9354198 16.9870293,20.0018074 16.5957055,19.7792945 C13.935688,18.2667668 11.7332332,16.064312 10.2207055,13.4042945 C9.99819261,13.0129707 10.0645802,12.5212062 10.3828932,12.2028932 L11.6489477,10.9368609 C11.9234552,10.659264 12.0113152,10.2472984 11.8731028,9.87960484 C11.5081853,8.90167182 11.2550702,7.88559547 11.1198416,6.85995157 C11.0495921,6.36293531 10.6217737,5.99501149 10.11,6 L7.11094173,5.99999956 C6.83023885,6.0002639 6.5625715,6.1184944 6.37332462,6.32581008 C6.18407773,6.53312577 6.09067833,6.81043572 6.11440873,7.07440043 C6.42606543,10.0092053 7.42465571,12.8293283 9.03401379,15.3136785 C10.4906147,17.6059441 12.4340559,19.5493853 14.7341012,21.0109804 C17.1998725,22.6100241 20.0063472,23.6083877 22.9100082,23.924059 C23.1904402,23.949403 23.4685621,23.8553447 23.6760472,23.6649914 C23.8835322,23.4746382 24.0011511,23.2056315 24,22.92 L24,19.92 Z M25.9999918,22.915941 C26.0034205,23.7606587 25.6505637,24.5676786 25.0281086,25.1387383 C24.4056534,25.7097981 23.5712877,25.9919732 22.7119777,25.9141485 C19.4793206,25.5628939 16.3741258,24.4582649 13.6536785,22.6940138 C11.1136004,21.0799425 8.96005755,18.9263996 7.35072012,16.3936996 C5.5753004,13.6530797 4.47042057,10.5327839 4.12405827,7.27000044 C4.04826809,6.43130894 4.32846629,5.59937908 4.89620694,4.97743203 C5.4639476,4.35548498 6.26694964,4.00079348 7.11,4 L10.1001584,4.00004843 C11.6059544,3.98522819 12.8894096,5.08899965 13.1014144,6.58924251 C13.2181758,7.47453743 13.4347136,8.34378194 13.7460523,9.17813912 C14.1581548,10.2744517 13.8945749,11.5103485 13.0671068,12.3471068 L12.3500142,13.0641994 C13.5258702,14.9088481 15.0911572,16.4741344 16.9358065,17.6499895 L17.6568609,16.9289477 C18.4896515,16.1054251 19.7255483,15.8418452 20.8196048,16.2531028 C21.6562181,16.5652864 22.5254626,16.7818242 23.4196923,16.899805 C24.9235348,17.1119605 26.0308518,18.4141882 26,19.9311768 L25.9999918,22.915941 Z" id="Mask" fill="#FFFFFF" fill-rule="nonzero"></path>
    </g>
</svg>