<?xml version="1.0" encoding="UTF-8"?>
<svg width="30px" height="30px" viewBox="0 0 30 30" version="1.1" xmlns="http://www.w3.org/2000/svg" xmlns:xlink="http://www.w3.org/1999/xlink">
    <!-- Generator: Sketch 53.2 (72643) - https://sketchapp.com -->
    <title>ic_white_calendar</title>
    <desc>Created with Sketch.</desc>
    <g id="ic_white_calendar" stroke="none" stroke-width="1" fill="none" fill-rule="evenodd">
        <path d="M6.27272727,11.7272727 L23.7272727,11.7272727 L23.7272727,8.45454545 C23.7272727,7.852053 23.2388561,7.36363636 22.6363636,7.36363636 L20.4545455,7.36363636 L20.4545455,8.45454545 C20.4545455,9.05703791 19.9661288,9.54545455 19.3636364,9.54545455 C18.7611439,9.54545455 18.2727273,9.05703791 18.2727273,8.45454545 L18.2727273,7.36363636 L11.7272727,7.36363636 L11.7272727,8.45454545 C11.7272727,9.05703791 11.2388561,9.54545455 10.6363636,9.54545455 C10.0338712,9.54545455 9.54545455,9.05703791 9.54545455,8.45454545 L9.54545455,7.36363636 L7.36363636,7.36363636 C6.76114391,7.36363636 6.27272727,7.852053 6.27272727,8.45454545 L6.27272727,11.7272727 Z M6.27272727,13.9090909 L6.27272727,23.7272727 C6.27272727,24.3297652 6.76114391,24.8181818 7.36363636,24.8181818 L22.6363636,24.8181818 C23.2388561,24.8181818 23.7272727,24.3297652 23.7272727,23.7272727 L23.7272727,13.9090909 L6.27272727,13.9090909 Z M11.7272727,5.18181818 L18.2727273,5.18181818 L18.2727273,4.09090909 C18.2727273,3.48841664 18.7611439,3 19.3636364,3 C19.9661288,3 20.4545455,3.48841664 20.4545455,4.09090909 L20.4545455,5.18181818 L22.6363636,5.18181818 C24.443841,5.18181818 25.9090909,6.64706809 25.9090909,8.45454545 L25.9090909,23.7272727 C25.9090909,25.5347501 24.443841,27 22.6363636,27 L7.36363636,27 C5.556159,27 4.09090909,25.5347501 4.09090909,23.7272727 L4.09090909,8.45454545 C4.09090909,6.64706809 5.556159,5.18181818 7.36363636,5.18181818 L9.54545455,5.18181818 L9.54545455,4.09090909 C9.54545455,3.48841664 10.0338712,3 10.6363636,3 C11.2388561,3 11.7272727,3.48841664 11.7272727,4.09090909 L11.7272727,5.18181818 Z" id="Mask" fill="#FFFFFF" fill-rule="nonzero"></path>
    </g>
</svg>