<?xml version="1.0" encoding="UTF-8"?>
<svg width="30px" height="30px" viewBox="0 0 30 30" version="1.1" xmlns="http://www.w3.org/2000/svg" xmlns:xlink="http://www.w3.org/1999/xlink">
    <!-- Generator: Sketch 53.2 (72643) - https://sketchapp.com -->
    <title>ic_white_alert</title>
    <desc>Created with Sketch.</desc>
    <g id="ic_white_alert" stroke="none" stroke-width="1" fill="none" fill-rule="evenodd">
        <path d="M15,27.5 C8.09644063,27.5 2.5,21.9035594 2.5,15 C2.5,8.09644063 8.09644063,2.5 15,2.5 C21.9035594,2.5 27.5,8.09644063 27.5,15 C27.5,21.9035594 21.9035594,27.5 15,27.5 Z M15,25.5 C20.7989899,25.5 25.5,20.7989899 25.5,15 C25.5,9.20101013 20.7989899,4.5 15,4.5 C9.20101013,4.5 4.5,9.20101013 4.5,15 C4.5,20.7989899 9.20101013,25.5 15,25.5 Z" id="Oval" fill="#FFFFFF" fill-rule="nonzero"></path>
        <path d="M14,10.4 C14,9.84771525 14.4477153,9.4 15,9.4 C15.5522847,9.4 16,9.84771525 16,10.4 L16,15 C16,15.5522847 15.5522847,16 15,16 C14.4477153,16 14,15.5522847 14,15 L14,10.4 Z" id="Path" fill="#FFFFFF" fill-rule="nonzero"></path>
        <path d="M15,20.6 C14.4477153,20.6 14,20.1522847 14,19.6 C14,19.0477153 14.4477153,18.6 15,18.6 L15.0115,18.6 C15.5637847,18.6 16.0115,19.0477153 16.0115,19.6 C16.0115,20.1522847 15.5637847,20.6 15.0115,20.6 L15,20.6 Z" id="Path" fill="#FFFFFF" fill-rule="nonzero"></path>
    </g>
</svg>