<?xml version="1.0" encoding="UTF-8"?>
<svg width="30px" height="30px" viewBox="0 0 30 30" version="1.1" xmlns="http://www.w3.org/2000/svg" xmlns:xlink="http://www.w3.org/1999/xlink">
    <!-- Generator: Sketch 53.2 (72643) - https://sketchapp.com -->
    <title>ic_white_save</title>
    <desc>Created with Sketch.</desc>
    <g id="ic_white_save" stroke="none" stroke-width="1" fill="none" fill-rule="evenodd">
        <g id="save" transform="translate(3.000000, 3.000000)" fill="#FFFFFF" fill-rule="nonzero">
            <path d="M16.3029437,2.4 L3.6,2.4 C2.9372583,2.4 2.4,2.9372583 2.4,3.6 L2.4,20.4 C2.4,21.0627417 2.9372583,21.6 3.6,21.6 L20.4,21.6 C21.0627417,21.6 21.6,21.0627417 21.6,20.4 L21.6,7.69705627 L16.3029437,2.4 Z M20.4,24 L3.6,24 C1.6117749,24 0,22.3882251 0,20.4 L0,3.6 C0,1.6117749 1.6117749,0 3.6,0 L16.8,0 C17.1182598,0 17.4234845,0.126428208 17.6485281,0.351471863 L23.6485281,6.35147186 C23.8735718,6.57651552 24,6.88174021 24,7.2 L24,20.4 C24,22.3882251 22.3882251,24 20.4,24 Z" id="Path"></path>
            <path d="M7.2,14.4 L7.2,22.8 C7.2,23.4627417 6.6627417,24 6,24 C5.3372583,24 4.8,23.4627417 4.8,22.8 L4.8,13.2 C4.8,12.5372583 5.3372583,12 6,12 L18,12 C18.6627417,12 19.2,12.5372583 19.2,13.2 L19.2,22.8 C19.2,23.4627417 18.6627417,24 18,24 C17.3372583,24 16.8,23.4627417 16.8,22.8 L16.8,14.4 L7.2,14.4 Z" id="Path"></path>
            <path d="M7.2,6 L15.6,6 C16.2627417,6 16.8,6.5372583 16.8,7.2 C16.8,7.8627417 16.2627417,8.4 15.6,8.4 L6,8.4 C5.3372583,8.4 4.8,7.8627417 4.8,7.2 L4.8,1.2 C4.8,0.5372583 5.3372583,0 6,0 C6.6627417,0 7.2,0.5372583 7.2,1.2 L7.2,6 Z" id="Path"></path>
        </g>
    </g>
</svg>