<?xml version="1.0" encoding="UTF-8"?>
<svg width="30px" height="30px" viewBox="0 0 30 30" version="1.1" xmlns="http://www.w3.org/2000/svg" xmlns:xlink="http://www.w3.org/1999/xlink">
    <!-- Generator: Sketch 53.2 (72643) - https://sketchapp.com -->
    <title>ic_log_out</title>
    <desc>Created with Sketch.</desc>
    <g id="ic_log_out" stroke="none" stroke-width="1" fill="none" fill-rule="evenodd">
        <path d="M22.353154,14 L18.376577,10.1338835 C17.8744743,9.64572811 17.8744743,8.85427189 18.376577,8.36611652 C18.8786797,7.87796116 19.6927489,7.87796116 20.1948516,8.36611652 L26.0066943,14.0165191 C26.5718158,14.1020865 27,14.5098636 27,15 C27,15.0776954 26.9892406,15.1533212 26.968882,15.2259222 C27.0617948,15.6297179 26.9466418,16.0696429 26.623423,16.3838835 L20.1948516,22.6338835 C19.6927489,23.1220388 18.8786797,23.1220388 18.376577,22.6338835 C17.8744743,22.1457281 17.8744743,21.3542719 18.376577,20.8661165 L23.3817254,16 L11.2142857,16 C10.5436542,16 10,15.5522847 10,15 C10,14.4477153 10.5436542,14 11.2142857,14 L22.353154,14 Z M11.75,24.6 C12.4403559,24.6 13,25.1372583 13,25.8 C13,26.4627417 12.4403559,27 11.75,27 L6.75,27 C4.67893219,27 3,25.3882251 3,23.4 L3,6.6 C3,4.6117749 4.67893219,3 6.75,3 L11.75,3 C12.4403559,3 13,3.5372583 13,4.2 C13,4.8627417 12.4403559,5.4 11.75,5.4 L6.75,5.4 C6.05964406,5.4 5.5,5.9372583 5.5,6.6 L5.5,23.4 C5.5,24.0627417 6.05964406,24.6 6.75,24.6 L11.75,24.6 Z" id="Mask" fill="#FFFFFF" fill-rule="nonzero"></path>
    </g>
</svg>