<?xml version="1.0" encoding="UTF-8"?>
<svg width="155px" height="32px" viewBox="0 0 155 32" version="1.1" xmlns="http://www.w3.org/2000/svg" xmlns:xlink="http://www.w3.org/1999/xlink">
    <!-- Generator: Sketch 53.2 (72643) - https://sketchapp.com -->
    <title>logo_white_esun</title>
    <desc>Created with Sketch.</desc>
    <g id="logo_white_esun" stroke="none" stroke-width="1" fill="none" fill-rule="evenodd">
        <path d="M140.239434,7.91867317 C138.608215,10.0166244 136.514166,12.2129171 134.281971,13.6451122 L132.717873,10.4154537 C134.449776,9.3180878 136.079434,7.65174634 137.411727,5.98930732 C138.342849,6.61916098 139.276312,7.28647805 140.239434,7.91867317" id="Fill-1" fill="#FFFFFF"></path>
        <polygon id="Clip-4" points="0.231707317 31.6307512 154.489659 31.6307512 154.489659 -7.80487805e-05 0.231707317 -7.80487805e-05"></polygon>
        <polygon id="Fill-3" fill="#FFFFFF" points="141.336878 9.84889756 153.585073 9.84889756 153.585073 6.55445854 141.336878 6.55445854"></polygon>
        <path d="M154.489424,13.3774829 L154.489424,16.5735805 L151.225424,16.5735805 L151.158302,25.7255805 C151.024839,26.4264585 150.458985,27.0586537 149.824449,27.3568 C148.327473,27.9921171 146.431668,27.7571902 144.766888,27.7571902 L143.466595,24.4284098 L147.461912,24.3612878 C147.628156,24.2965073 147.7624,24.0967024 147.831083,23.929678 L147.861522,16.607922 L140.208839,16.5408 C140.175278,15.7415805 140.239278,14.9080195 140.140156,14.175922 C139.839668,14.7409951 139.443961,15.3076293 139.044351,15.8414829 L139.044351,27.9569951 L135.711668,27.9569951 C135.681229,25.3267512 135.74679,22.6637268 135.681229,20.0342634 C135.116156,20.4674341 134.580741,21.0005073 134.049229,21.4664585 L132.550693,17.8707512 C134.814107,16.2067512 136.478888,13.9113366 137.846302,11.646361 L140.208839,13.3447024 L154.489424,13.3774829 Z" id="Fill-5" fill="#FFFFFF"></path>
        <path d="M117.410166,14.763161 C117.245483,14.5305756 117.312605,13.964722 117.376605,13.6657951 L121.039434,13.6657951 C121.2728,13.8976 121.140117,14.3635512 121.172117,14.6968195 C119.974068,14.828722 118.644898,14.763161 117.410166,14.763161 L117.410166,14.763161 Z M117.143239,23.6185756 L117.143239,17.8593561 C117.343044,17.6915512 118.043922,17.5588683 117.97758,18.0919415 C118.243727,19.8230634 118.644898,21.4862829 119.341873,23.052722 C118.644898,23.2837463 117.910459,23.5514537 117.143239,23.6185756 L117.143239,23.6185756 Z M117.312605,9.77116098 L117.478849,9.63691707 L121.072995,9.63691707 C121.237678,9.9038439 121.140117,10.3354537 121.172117,10.7015024 L121.072995,10.7694049 L117.478849,10.7694049 C117.143239,10.635161 117.376605,10.1020878 117.312605,9.77116098 L117.312605,9.77116098 Z M113.916702,24.1828683 L113.185385,24.1828683 C113.150263,23.7496976 113.215824,23.3165268 113.150263,22.9176976 C113.019141,22.952039 112.98402,22.7842341 112.951239,22.7186732 C113.282946,21.6205268 113.41641,20.488039 113.649776,19.3906732 C112.884117,19.1229659 112.052898,18.9559415 111.220898,18.790478 L110.52002,22.1848195 L110.587141,22.3534049 L112.450946,22.7842341 C111.754751,22.9856 111.087434,23.1846244 110.287434,23.2181854 L110.287434,18.4572098 L113.382849,18.4572098 L113.41641,15.462478 L110.356117,15.3961366 L110.356117,14.662478 C111.052312,14.5976976 111.786751,14.6289171 112.518068,14.6289171 C112.619532,14.2308683 112.55319,13.798478 112.585971,13.3660878 C112.749873,13.1982829 112.916117,13.4972098 113.083922,13.4972098 C113.44841,13.030478 113.615434,12.4318439 113.916702,11.9658927 L113.916702,24.1828683 Z M108.956702,9.83750244 C109.488995,10.3697951 110.121971,10.9020878 110.388898,11.5655024 L107.792995,11.6006244 C108.125483,10.9684293 108.522751,10.4025756 108.956702,9.83750244 L108.956702,9.83750244 Z M124.16919,23.6185756 C123.902263,23.6841366 124.036507,23.3844293 123.803141,23.3844293 C123.733678,23.1502829 123.501873,23.0839415 123.338751,22.9176976 C123.270068,22.6866732 123.003141,22.6866732 123.038263,22.3534049 C123.135824,22.3190634 123.038263,22.0185756 123.270068,22.1528195 L123.270068,22.0521366 C123.570556,21.9202341 123.76958,21.7196488 124.036507,21.5541854 C124.102068,21.4542829 124.268312,21.4542829 124.301873,21.320039 C124.335434,21.2872585 124.400995,21.320039 124.468117,21.2872585 L124.468117,21.2209171 C124.501678,21.1537951 124.6008,21.1857951 124.6328,21.1857951 L124.6328,21.0882341 C124.666361,21.0203317 124.735044,21.0882341 124.767044,21.0554537 L124.767044,20.9891122 C124.802166,20.9196488 124.901288,20.9539902 124.933288,20.9539902 L124.933288,20.8556488 C125.001971,20.7877463 125.069093,20.8220878 125.133093,20.8220878 L125.133093,20.7206244 C125.133093,20.6870634 125.200995,20.7206244 125.232995,20.6870634 L125.232995,20.620722 C125.266556,20.555161 125.332117,20.5879415 125.3688,20.5879415 L125.3688,20.3202341 C125.099532,20.2546732 125.232995,19.8550634 124.933288,19.7902829 C124.834166,19.7902829 124.966849,19.590478 124.802166,19.6568195 C124.666361,19.5241366 124.703044,19.3227707 124.535239,19.2572098 C124.468117,19.1565268 124.434556,18.9902829 124.335434,18.9255024 C124.199629,18.8232585 124.199629,18.5898927 124.036507,18.5555512 C123.969385,18.2246244 123.733678,18.0256 123.535434,17.8593561 C123.469873,17.9256976 123.434751,18.0256 123.302068,17.9928195 C123.302068,18.0256 123.338751,18.0919415 123.270068,18.0919415 C122.870459,18.2574049 122.605093,18.7241366 122.16958,18.891161 C122.038459,19.0909659 121.805093,19.1565268 121.605288,19.2923317 C121.306361,19.3906732 121.3368,19.1229659 121.237678,19.0230634 C121.172117,18.5898927 120.805288,17.9928195 121.207239,17.6915512 L124.535239,17.6915512 L124.535239,6.34091707 L113.981483,6.34091707 L113.916702,9.73681951 C112.418166,8.9376 111.251337,7.34072195 110.454459,5.94130732 L107.491727,5.94130732 C106.526263,7.74033171 105.09719,9.47223415 103.364507,10.8373073 C103.729776,12.0010146 104.129385,13.2310634 104.596117,14.3978927 L105.461678,13.8656 C105.627141,14.0310634 105.527239,14.3635512 105.562361,14.5976976 L107.25758,14.6289171 C107.2248,14.8958439 107.25758,15.1963317 107.2248,15.462478 L103.898361,15.462478 L103.898361,18.3908683 L107.25758,18.4572098 L107.2248,23.8176 L106.629288,24.0814049 L103.797678,24.3171122 L103.963141,27.6451122 C106.826751,27.2455024 109.654459,26.7124293 112.418166,26.1145756 C112.951239,26.3463805 112.651532,27.0792585 112.749873,27.5772098 C112.98402,27.7106732 113.44841,27.6451122 113.683337,27.5772098 C114.183629,27.6451122 114.314751,27.2782829 114.815824,27.4117463 C114.948507,27.1456 115.445678,27.4117463 115.614263,27.212722 C116.2808,27.1456 116.844312,26.9793561 117.442166,26.8451122 C117.809776,26.7467707 118.243727,26.7467707 118.574654,26.5805268 C118.942263,26.4790634 119.475337,26.5469659 119.740702,26.2792585 L119.740702,24.1508683 L119.906946,24.0501854 C120.108312,24.1508683 120.207434,24.3171122 120.242556,24.5489171 C120.439239,24.6168195 120.4728,24.8814049 120.672605,24.9820878 C120.774849,24.9820878 120.639044,25.2170146 120.805288,25.1483317 C120.805288,25.4816 121.207239,25.3809171 121.207239,25.7126244 C121.507727,25.7805268 121.507727,26.1473561 121.771532,26.2136976 C121.870654,26.4790634 122.10558,26.5469659 122.270263,26.7124293 C122.303824,26.9793561 122.638654,26.9122341 122.638654,27.179161 C122.900898,27.3118439 123.103824,27.4437463 123.302068,27.6451122 C123.535434,27.6123317 123.434751,27.7106732 123.668117,27.6451122 C123.803141,27.4117463 123.969385,27.212722 124.068507,26.9450146 C124.199629,26.8451122 124.268312,26.6453073 124.400995,26.5805268 C124.468117,26.4455024 124.5688,26.380722 124.5688,26.2136976 C124.735044,26.2136976 124.735044,26.0138927 124.802166,25.9155512 C124.966849,25.6814049 125.133093,25.4816 125.266556,25.1826732 C125.4008,25.1826732 125.4008,25.0164293 125.498361,24.8814049 L125.498361,24.683161 C125.033971,24.3491122 124.501678,24.0814049 124.16919,23.6185756 L124.16919,23.6185756 Z" id="Fill-6" fill="#FFFFFF"></path>
        <path d="M104.596117,23.6839024 C105.129971,23.5832195 105.662263,23.4497561 106.193776,23.3498537 C106.395141,23.2507317 106.726068,23.2835122 106.79241,23.0837073 C106.826751,21.7194146 106.492702,20.4214634 106.427922,19.1562927 C106.095434,18.9252683 105.692702,19.1562927 105.328215,19.1898537 C104.863824,19.2920976 104.428312,19.4216585 103.962361,19.5239024 L104.196507,23.6839024 L104.297971,23.7494634 C104.428312,23.7494634 104.563337,23.8173659 104.596117,23.6839024" id="Fill-7" fill="#FFFFFF"></path>
        <path d="M31.1601756,10.0124098 C33.5437854,16.0760195 31.8555902,23.2284098 27.0181268,27.5031415 C22.8448585,31.278361 16.6516878,32.6691902 11.1195902,30.8139707 C4.92563902,28.7620683 0.586126829,23.1628488 0.254419512,16.6051902 C-0.0757268293,10.411239 3.17032195,4.81201951 8.60173659,1.86567805 C13.570322,-0.985443902 21.0232,-0.519492683 25.5617366,2.9248 C28.0452488,4.61533659 30.0331512,7.2643122 31.1601756,10.0124098" id="Fill-8" fill="#FFFFFF"></path>
        <path d="M6.60376585,14.5245659 C6.59127805,14.5315902 6.59283902,14.5315902 6.60376585,14.5245659" id="Fill-9" fill="#45B29D"></path>
        <path d="M16.7188878,12.6854244 C16.6431805,12.7002537 16.5705951,12.7314732 16.5183024,12.7954732 C16.6377171,12.7868878 16.6915707,12.7431805 16.7188878,12.6854244" id="Fill-10" fill="#45B29D"></path>
        <path d="M30.2645659,17.9940683 L30.7952976,17.9940683 C30.6946146,17.663922 30.1982244,17.7966049 29.9992,17.499239 C30.1982244,17.4344585 30.4628098,17.5328 30.6618341,17.631922 L30.6618341,17.5991415 C30.5634927,17.5328 30.3316878,17.5328 30.3964683,17.3322146 C28.8745171,16.7710439 27.5164683,15.807922 26.2232,14.8502634 C25.164078,14.2524098 24.6005659,12.8280195 23.4064195,12.4323122 C23.2097366,12.1646049 23.1433951,11.9015805 22.9771512,11.6034341 L22.8444683,11.6697756 C22.6126634,11.4051902 22.5791024,11.0734829 22.4144195,10.8081171 C22.2489561,10.5763122 21.9180293,10.5091902 21.6854439,10.5091902 C21.3209561,10.7097756 20.7582244,10.3772878 20.5264195,10.5763122 L20.7254439,10.6762146 C20.658322,10.7761171 20.5935415,10.8760195 20.4265171,10.8401171 C19.698322,10.3109463 19.0684683,9.51797073 18.5065171,8.82021463 C18.8046634,7.99289756 17.7104195,7.79543415 17.3139317,7.19836098 C16.749639,6.76597073 16.0214439,7.19836098 15.4579317,7.3630439 C14.5314927,7.09767805 13.5699317,6.93299512 12.5771512,6.8323122 C12.178322,6.93299512 11.9472976,7.3630439 11.7474927,7.62840976 C11.152761,8.45572683 10.8881756,9.48284878 10.1919805,10.3109463 C9.99373659,10.6762146 9.49734634,10.5091902 9.23198049,10.7761171 C8.63490732,10.7761171 8.10573659,10.974361 7.60856585,11.2725073 C7.57656585,11.3388488 7.5414439,11.4379707 7.44310244,11.4051902 C7.30963902,11.6697756 7.11139512,11.9015805 6.91237073,12.1646049 C6.41441951,12.8280195 5.48876098,13.0278244 4.79334634,13.4243122 C3.9316878,13.9222634 3.07080976,14.3866537 2.37383415,15.1468488 L2.40817561,15.1804098 C2.04524878,15.7095805 1.51373659,16.0069463 1.15002927,16.505678 C1.51373659,16.4065561 1.44817561,15.9741659 1.87900488,16.0412878 C1.97734634,16.3050927 1.6472,16.4065561 1.61207805,16.5728 C1.74632195,16.505678 1.91022439,16.4065561 2.04524878,16.4408976 C1.97734634,16.6391415 1.81188293,16.7374829 1.6472,16.8693854 C1.81188293,16.8022634 1.77910244,16.9685073 1.84388293,17.0028488 C2.01090732,17.0356293 2.27627317,16.7374829 2.50807805,16.8693854 C2.30905366,17.0699707 2.07724878,17.3009951 1.94378537,17.4001171 L1.94378537,17.4344585 C2.07724878,17.4344585 2.17637073,17.4344585 2.2427122,17.3322146 C2.47451707,17.3009951 2.67198049,16.9685073 2.87256585,16.9372878 L2.50807805,17.4344585 L2.90456585,17.1339707 C3.00524878,17.2666537 2.67198049,17.3673366 2.83900488,17.499239 C3.13637073,17.3673366 3.2027122,17.0699707 3.46885854,16.9372878 C3.43451707,17.2003122 3.13637073,17.4001171 3.00524878,17.631922 C3.13637073,17.499239 3.53441951,17.4001171 3.46885854,17.1339707 C3.73266341,16.8693854 4.06515122,16.6711415 4.26339512,16.3386537 C4.99159024,15.5433366 5.52232195,14.7168 6.61578537,14.4849951 C6.63139512,14.4998244 6.61578537,14.5162146 6.60407805,14.5248 C6.6072,14.5224585 6.6072,14.5224585 6.61578537,14.5177756 C7.21129756,14.0190439 8.13773659,14.0190439 8.70202927,13.4243122 C8.80115122,13.2924098 8.96583415,13.0278244 9.1992,13.0941659 L9.1992,13.0278244 C9.23198049,12.8951415 9.36388293,12.795239 9.53090732,12.8280195 L9.56446829,12.9614829 C10.0265171,12.4323122 10.8226146,12.6305561 11.186322,12.1333854 L11.186322,12.1981659 C11.7147122,12.0342634 12.0815415,11.5370927 12.3781268,11.1398244 C12.5771512,10.8401171 12.7082732,10.5091902 12.9744195,10.3109463 C13.1406634,10.0455805 13.2390049,9.71621463 13.5043707,9.48284878 C13.804078,9.45084878 14.1990049,9.4172878 14.4979317,9.51797073 C14.8959805,10.0455805 15.5913951,9.74743415 16.1884683,9.78099512 C16.2204683,10.0791415 16.5186146,9.78099512 16.5521756,10.0791415 C17.0485659,10.3109463 17.2132488,11.039922 17.644078,11.4379707 C17.3794927,11.6034341 17.0485659,11.8680195 16.9814439,12.2317268 C16.6708098,12.2793366 16.7902244,12.5353366 16.7192,12.6851902 C16.8386146,12.6633366 16.9673951,12.6945561 17.0485659,12.795239 L16.9502244,12.8951415 C16.4522732,13.1269463 15.9558829,13.4570927 15.4579317,13.7575805 L15.5242732,13.8208 C15.3931512,13.9222634 15.2596878,14.0877268 15.1597854,14.1540683 L15.2596878,14.1540683 C15.3595902,14.1876293 15.3260293,14.3195317 15.3260293,14.2859707 C15.4914927,14.2859707 15.6569561,14.0541659 15.789639,14.1876293 C15.8232,14.2196293 15.756078,14.2524098 15.756078,14.2859707 C15.9215415,14.0541659 16.1221268,14.3195317 16.2204683,14.3195317 C15.9886634,14.5177756 15.6897366,14.7495805 15.4251512,14.9493854 L15.6897366,14.9493854 C15.5913951,15.2459707 15.2276878,15.1468488 15.0614439,15.4122146 C15.2596878,15.4122146 15.1277854,15.6448 15.0614439,15.6768 C15.1933463,15.6448 15.3260293,15.4777756 15.4914927,15.5784585 C15.3931512,15.807922 15.0942244,15.8438244 15.0614439,16.1076293 C15.2924683,15.9741659 15.4251512,15.5784585 15.724078,15.7095805 C15.756078,15.807922 15.5242732,15.8438244 15.6226146,16.0069463 C15.756078,15.9741659 15.8552,15.807922 16.0214439,15.8766049 C16.0885659,15.8766049 16.1533463,15.9429463 16.1221268,16.0069463 C16.2532488,15.8438244 16.5186146,16.0069463 16.652078,15.8766049 C17.1133463,15.2459707 18.0093463,15.3450927 18.6712,15.0485073 L18.6384195,14.8822634 C18.7375415,14.4849951 19.3346146,14.5848976 19.664761,14.4506537 C19.7654439,14.0541659 20.2953951,14.3523122 20.460078,13.9878244 C20.658322,13.8208 20.8253463,14.0541659 21.0228098,14.0541659 C21.2889561,13.9222634 21.6526634,13.9542634 21.8844683,13.8208 C22.512761,13.6904585 23.0427122,14.4506537 23.4064195,14.815922 C24.2352976,15.807922 25.4630049,16.539239 26.4885659,17.0356293 C25.9258341,16.6391415 25.3311024,16.3737756 24.7660293,15.9429463 C24.7995902,15.8438244 24.8987122,15.8766049 24.9650537,15.8766049 C25.4630049,16.2403122 25.9586146,16.505678 26.4565659,16.8373854 C27.4821268,17.663922 28.7410537,18.3601171 29.8657366,18.8245073 L29.7010537,18.6918244 C29.7338341,18.6582634 29.6690537,18.5934829 29.7338341,18.5591415 L29.965639,18.6918244 C29.9992,18.5591415 30.1654439,18.5591415 30.2645659,18.5248 C30.0998829,18.2282146 29.6690537,18.1283122 29.3709073,17.9620683 C28.5100293,17.465678 27.4501268,16.9372878 26.6883707,16.2067512 L26.7195902,16.1755317 C27.6795902,16.7710439 28.6747122,17.4344585 29.7673951,17.8980683 C29.9328585,18.2282146 30.1982244,18.0284098 30.4628098,18.1283122 C30.3964683,18.0955317 30.2645659,18.0955317 30.2645659,17.9940683" id="Fill-11" fill="#45B29D"></path>
        <polygon id="Fill-12" fill="#45B29D" points="22.8446244 11.2402732 22.712722 10.8757854 22.8446244 11.3050537"></polygon>
        <path d="M16.1220488,13.0276683 L15.9558049,12.9613268 C16.0549268,13.2259122 15.724,13.1587902 15.6225366,13.2602537 L15.5913171,13.1587902 L15.3259512,13.3585951 C15.2931707,13.6247415 14.8959024,13.4569366 14.8623415,13.7230829 C15.0949268,13.7230829 15.2931707,13.4241561 15.5913171,13.4569366 C15.6225366,13.2602537 15.9558049,13.1587902 16.1220488,13.0276683" id="Fill-13" fill="#45B29D"></path>
        <path d="M15.0610537,13.2258341 C14.8955902,13.3265171 14.7629073,13.3265171 14.6965659,13.4912 C14.8620293,13.4568585 14.9954927,13.3585171 15.0610537,13.2258341" id="Fill-14" fill="#45B29D"></path>
        <polygon id="Fill-15" fill="#45B29D" points="26.5877659 17.1015805 26.9865951 17.4005073 26.8531317 17.2342634"></polygon>
        <polygon id="Fill-16" fill="#FFFFFF" points="87.244 22.7174244 92.072878 22.7174244 92.072878 8.66396098 95.5390244 8.66396098 95.5390244 27.3800585 92.072878 27.3800585 92.072878 26.1172293 78.7842927 26.0828878 78.7491707 27.2856195 75.1862439 27.2856195 75.1862439 8.49693659 78.7491707 8.49693659 78.7491707 22.7174244 83.6451707 22.6830829 83.6451707 5.43430244 87.244 5.43430244"></polygon>
        <polygon id="Fill-17" fill="#FFFFFF" points="65.7218927 9.31879024 57.8639415 9.33596098 57.800722 9.40308293 57.800722 14.1913756 65.192722 14.263961 65.192722 17.652839 57.7663805 17.652839 57.7289171 23.6828878 66.6889171 23.7164488 66.6889171 27.1825951 45.2106732 27.1825951 45.2106732 23.7500098 54.1378927 23.7164488 54.1378927 17.6918634 46.8091122 17.652839 46.8091122 14.2296195 54.1378927 14.2296195 54.1378927 9.30708293 46.3088195 9.23137561 46.3088195 5.83625366 65.7273561 5.83625366"></polygon>
        <path d="M63.5321561,19.5550439 C63.8303024,20.0241171 63.9348878,20.6586537 63.7951805,21.2580683 C63.6336195,21.886361 63.0310829,22.5513366 62.3996683,22.7175805 C61.5317659,22.9915317 60.6974244,22.683239 60.1011317,22.0518244 C59.7327415,21.6233366 59.6016195,21.0933854 59.6304976,20.4838244 C59.701522,19.6931902 60.335278,18.9002146 61.0993756,18.6918244 C61.9984976,18.4241171 62.9990829,18.7253854 63.5321561,19.5550439" id="Fill-18" fill="#FFFFFF"></path>
        <path d="M7.27756098,12.1984 C7.40946341,12.100839 7.50936585,11.9353756 7.54136585,11.7699122 C7.44302439,11.9353756 7.17765854,12.0001561 7.27756098,12.1984" id="Fill-19" fill="#FFFFFF"></path>
        <polygon id="Fill-20" fill="#FFFFFF" points="10.4558634 12.2638829 10.5565463 12.2318829 10.4558634 12.2318829"></polygon>
        <path d="M9.5641561,12.5955122 C9.66249756,12.6306341 9.69527805,12.5322927 9.7624,12.4636098 C9.69527805,12.3988293 9.5641561,12.4971707 9.5641561,12.5955122" id="Fill-21" fill="#FFFFFF"></path>
        <path d="M8.13804878,13.6907707 C8.17160976,13.6244293 8.3035122,13.7227707 8.23795122,13.6244293 C8.20517073,13.6244293 8.17160976,13.6564293 8.13804878,13.6907707" id="Fill-22" fill="#FFFFFF"></path>
        <path d="M15.855278,15.0817561 C15.9887415,14.9834146 16.2205463,14.9834146 16.2533268,14.8499512 C16.2533268,14.8156098 16.1534244,14.8499512 16.1222049,14.8156098 C16.021522,14.8819512 15.823278,14.9490732 15.855278,15.0817561" id="Fill-23" fill="#FFFFFF"></path>
        <path d="M24.2036098,15.1800976 C24.0701463,15.1137561 24.0053659,14.9490732 23.9046829,14.8499512 C24.0373659,15.1465366 24.1692683,15.3799024 24.4018537,15.6101463 L24.5025366,15.5110244 C24.4018537,15.4126829 24.3362927,15.246439 24.2036098,15.1800976" id="Fill-24" fill="#FFFFFF"></path>
    </g>
</svg>